name Walk2.mot
datacolumns 19
datarows 25
range 1.36500000 1.38900000
endheader

                time	   L_ground_force_vx	   L_ground_force_vy	   L_ground_force_vz	   L_ground_force_px	   L_ground_force_py	   L_ground_force_pz	   R_ground_force_vx	   R_ground_force_vy	   R_ground_force_vz	   R_ground_force_px	   R_ground_force_py	   R_ground_force_pz	   L_ground_torque_x	   L_ground_torque_y	   L_ground_torque_z	   R_ground_torque_x	   R_ground_torque_y	   R_ground_torque_z	
          1.36500000	         22.64224657	        639.54442924	         40.48053763	         -0.11555588	          0.00000000	         -0.06544054	         -0.14332437	          0.68390948	         -0.00301162	          0.00044840	          0.00000000	          0.00009763	          0.00000000	         -1.35633176	          0.00000000	          0.00000000	         -0.00130170	          0.00000000	
          1.36600000	         22.90487666	        640.93748015	         40.81247024	         -0.11477522	          0.00000000	         -0.06555015	         -0.14411040	          0.68767961	         -0.00299634	          0.00042382	          0.00000000	          0.00009228	          0.00000000	         -1.33791064	          0.00000000	          0.00000000	         -0.00130224	          0.00000000	
          1.36700000	         23.17156389	        642.33978899	         41.14608402	         -0.11399866	          0.00000000	         -0.06565990	         -0.14437430	          0.68896003	         -0.00296727	          0.00039519	          0.00000000	          0.00008606	          0.00000000	         -1.31936559	          0.00000000	          0.00000000	         -0.00129746	          0.00000000	
          1.36800000	         23.44270915	        643.75258007	         41.48125177	         -0.11322653	          0.00000000	         -0.06576971	         -0.14406648	          0.68751408	         -0.00292324	          0.00036228	          0.00000000	          0.00007891	          0.00000000	         -1.30071301	          0.00000000	          0.00000000	         -0.00128688	          0.00000000	
          1.36900000	         23.71873266	        645.17703421	         41.81785024	         -0.11245916	          0.00000000	         -0.06587952	         -0.14313507	          0.68309441	         -0.00286305	          0.00032481	          0.00000000	          0.00007076	          0.00000000	         -1.28196888	          0.00000000	          0.00000000	         -0.00126999	          0.00000000	
          1.37000000	         24.00007286	        646.61428390	         42.15576042	         -0.11169690	          0.00000000	         -0.06598926	         -0.14152597	          0.67544291	         -0.00278544	          0.00028252	          0.00000000	          0.00006156	          0.00000000	         -1.26314873	          0.00000000	          0.00000000	         -0.00124629	          0.00000000	
          1.37100000	         24.28718526	        648.06540852	         42.49486768	         -0.11094008	          0.00000000	         -0.06609885	         -0.13918286	          0.66429088	         -0.00268911	          0.00023513	          0.00000000	          0.00005126	          0.00000000	         -1.24426746	          0.00000000	          0.00000000	         -0.00121524	          0.00000000	
          1.37200000	         24.58054105	        649.53142993	         42.83506198	         -0.11018903	          0.00000000	         -0.06620821	         -0.13604720	          0.64935909	         -0.00257273	          0.00018237	          0.00000000	          0.00003978	          0.00000000	         -1.22533917	          0.00000000	          0.00000000	         -0.00117629	          0.00000000	
          1.37300000	         24.88062556	        651.01330935	         43.17623761	         -0.10944410	          0.00000000	         -0.06631726	         -0.13205830	          0.63035796	         -0.00243490	          0.00012395	          0.00000000	          0.00002708	          0.00000000	         -1.20637693	          0.00000000	          0.00000000	         -0.00112886	          0.00000000	
          1.37400000	         25.18793658	        652.51194556	         43.51829288	         -0.10870559	          0.00000000	         -0.06642592	         -0.12715334	          0.60698784	         -0.00227422	          0.00005959	          0.00000000	          0.00001308	          0.00000000	         -1.18739259	          0.00000000	          0.00000000	         -0.00107236	          0.00000000	
          1.37500000	         25.50298269	        654.02817453	         43.86112942	         -0.10797384	          0.00000000	         -0.06653410	         -0.12126745	          0.57893924	         -0.00208921	         -0.00001099	          0.00000000	         -0.00000227	          0.00000000	         -1.16839661	          0.00000000	          0.00000000	         -0.00100618	          0.00000000	
          1.37600000	         25.82628165	        655.56276983	         44.20465123	         -0.10724916	          0.00000000	         -0.06664171	         -0.11433380	          0.54589325	         -0.00187837	         -0.00008809	          0.00000000	         -0.00001904	          0.00000000	         -1.14939802	          0.00000000	          0.00000000	         -0.00092970	          0.00000000	
          1.37700000	         26.15835873	        657.11644332	         44.54876345	         -0.10653188	          0.00000000	         -0.06674866	         -0.10628364	          0.50752198	         -0.00164019	         -0.00017200	          0.00000000	         -0.00003729	          0.00000000	         -1.13040451	          0.00000000	          0.00000000	         -0.00084227	          0.00000000	
          1.37800000	         26.49974489	        658.68984548	         44.89337084	         -0.10582229	          0.00000000	         -0.06685485	         -0.09704649	          0.46348903	         -0.00137311	         -0.00026298	          0.00000000	         -0.00005708	          0.00000000	         -1.11142271	          0.00000000	          0.00000000	         -0.00074324	          0.00000000	
          1.37900000	         26.85097483	        660.28356535	         45.23837624	         -0.10512069	          0.00000000	         -0.06696021	         -0.08655018	          0.41345015	         -0.00107553	         -0.00036134	          0.00000000	         -0.00007848	          0.00000000	         -1.09245855	          0.00000000	          0.00000000	         -0.00063193	          0.00000000	
          1.38000000	         27.21258492	        661.89812973	         45.58367898	         -0.10442739	          0.00000000	         -0.06706463	         -0.07472105	          0.35705390	         -0.00074586	         -0.00046734	          0.00000000	         -0.00010153	          0.00000000	         -1.07351765	          0.00000000	          0.00000000	         -0.00050768	          0.00000000	
          1.38100000	         27.58511088	        663.53400173	         45.92917346	         -0.10374267	          0.00000000	         -0.06716803	         -0.06148411	          0.29394242	         -0.00038247	         -0.00058126	          0.00000000	         -0.00012632	          0.00000000	         -1.05460574	          0.00000000	          0.00000000	         -0.00036978	          0.00000000	
          1.38200000	         27.96908566	        665.19157870	         46.27474777	         -0.10306681	          0.00000000	         -0.06727031	         -0.04676320	          0.22375235	          0.00001626	         -0.00070337	          0.00000000	         -0.00015288	          0.00000000	         -1.03572897	          0.00000000	          0.00000000	         -0.00021753	          0.00000000	
          1.38300000	         28.36503727	        666.87119018	         46.62028219	         -0.10240008	          0.00000000	         -0.06737137	         -0.03048123	          0.14611579	          0.00045198	         -0.00083392	          0.00000000	         -0.00018128	          0.00000000	         -1.01689407	          0.00000000	          0.00000000	         -0.00005024	          0.00000000	
          1.38400000	         28.77348697	        668.57309668	         46.96564776	         -0.10174275	          0.00000000	         -0.06747112	         -0.01256037	          0.06066140	          0.00092632	         -0.00097316	          0.00000000	         -0.00021157	          0.00000000	         -0.99810848	          0.00000000	          0.00000000	          0.00013280	          0.00000000	
          1.38500000	         29.19494754	        670.29749004	         47.31070476	         -0.10109506	          0.00000000	         -0.06756946	          0.00707767	         -0.03298436	          0.00144091	         -0.00112132	          0.00000000	         -0.00024380	          0.00000000	         -0.97938029	          0.00000000	          0.00000000	          0.00033230	          0.00000000	
          1.38600000	         29.62992174	        672.04449563	         47.65530137	         -0.10045726	          0.00000000	         -0.06766630	          0.02851134	         -0.13519594	          0.00199737	         -0.00127862	          0.00000000	         -0.00027802	          0.00000000	         -0.96071820	          0.00000000	          0.00000000	          0.00054897	          0.00000000	
          1.38700000	         30.07890063	        673.81417538	         47.99927244	         -0.09982959	          0.00000000	         -0.06776155	          0.05181898	         -0.24634719	          0.00259730	         -0.00144525	          0.00000000	         -0.00031427	          0.00000000	         -0.94213151	          0.00000000	          0.00000000	          0.00078350	          0.00000000	
          1.38800000	         30.54236189	        675.60653046	         48.34243822	         -0.09921226	          0.00000000	         -0.06785512	          0.07707848	         -0.36680978	          0.00324224	         -0.00162139	          0.00000000	         -0.00035259	          0.00000000	         -0.92363014	          0.00000000	          0.00000000	          0.00103659	          0.00000000	
          1.38900000	         31.02076793	        677.42150261	         48.68460316	         -0.09860549	          0.00000000	         -0.06794692	          0.10436689	         -0.49695147	          0.00393372	         -0.00180721	          0.00000000	         -0.00039302	          0.00000000	         -0.90522481	          0.00000000	          0.00000000	          0.00130893	          0.00000000	
